<?xml version="1.0" encoding="UTF-8"?>
<svg xmlns="http://www.w3.org/2000/svg" xmlns:xlink="http://www.w3.org/1999/xlink" width="128px" height="12px" viewBox="0 0 96 99" version="1.1">
<g id="surface1">
<path style=" stroke:none;fill-rule:nonzero;fill:rgb(100%,28.627451%,17.254902%);fill-opacity:1;" d="M 67.648438 70.46875 L 78.457031 89.21875 C 62.570312 101.378906 37.855469 102.851562 19.558594 88.84375 C -1.496094 72.714844 -4.957031 45.195312 6.316406 25.382812 C 19.28125 2.597656 43.542969 -2.441406 59.164062 1.253906 C 58.742188 2.171875 49.386719 21.578125 49.386719 21.578125 C 49.386719 21.578125 48.644531 21.628906 48.226562 21.636719 C 43.609375 21.832031 40.171875 22.90625 36.484375 24.8125 C 28.273438 29.097656 22.722656 37.171875 21.660156 46.371094 C 21.117188 50.96875 21.75 55.625 23.507812 59.910156 C 24.992188 63.527344 27.089844 66.742188 29.90625 69.457031 C 34.226562 73.625 39.367188 76.203125 45.324219 77.058594 C 50.964844 77.867188 56.390625 77.066406 61.476562 74.511719 C 63.382812 73.554688 65.003906 72.5 66.898438 71.046875 C 67.140625 70.894531 67.355469 70.695312 67.648438 70.46875 Z M 67.683594 15.21875 L 65.054688 12.632812 C 64.546875 12.128906 64.0625 11.605469 63.539062 11.117188 C 63.355469 10.941406 63.136719 10.699219 63.136719 10.699219 L 63.386719 10.167969 C 64.382812 8.175781 65.941406 6.714844 67.789062 5.554688 C 69.835938 4.261719 72.21875 3.601562 74.636719 3.664062 C 77.730469 3.722656 80.609375 4.496094 83.035156 6.570312 C 84.828125 8.101562 85.746094 10.046875 85.910156 12.367188 C 86.179688 16.28125 84.558594 19.277344 81.34375 21.367188 C 79.453125 22.601562 77.417969 23.550781 75.371094 24.679688 C 74.246094 25.300781 73.28125 25.847656 72.179688 26.972656 C 71.210938 28.101562 71.164062 29.167969 71.164062 29.167969 L 85.804688 29.148438 L 85.804688 35.667969 L 63.207031 35.667969 L 63.207031 35.039062 C 63.121094 31.832031 63.496094 28.816406 64.960938 25.910156 C 66.3125 23.238281 68.410156 21.285156 70.929688 19.78125 C 72.867188 18.621094 74.914062 17.632812 76.859375 16.480469 C 78.058594 15.769531 78.90625 14.726562 78.898438 13.214844 C 78.898438 11.914062 77.953125 10.761719 76.605469 10.402344 C 73.421875 9.542969 70.183594 10.910156 68.496094 13.824219 Z M 96 63.539062 L 83.664062 42.234375 L 59.25 42.234375 L 46.832031 63.757812 L 71.425781 63.757812 L 83.5625 84.960938 Z M 96 63.539062 "/>
</g>
</svg>
